<mxfile host="app.diagrams.net" modified="2021-04-11T16:09:52.461Z" agent="5.0 (Windows NT 10.0; Win64; x64) AppleWebKit/537.36 (KHTML, like Gecko) Chrome/89.0.4389.114 Safari/537.36" etag="PQ9vt4gEZv-iyUU_zU09" version="14.5.3" type="github">
  <diagram id="iBaJM44YYOgWMJ7TtHQ7" name="Page-1">
    <mxGraphModel dx="2272" dy="715" grid="1" gridSize="10" guides="1" tooltips="1" connect="1" arrows="1" fold="1" page="1" pageScale="1" pageWidth="850" pageHeight="1100" math="0" shadow="0">
      <root>
        <mxCell id="0" />
        <mxCell id="1" parent="0" />
        <mxCell id="pyJbDid6SzqdX5I7j4rj-1" value="main controller" style="ellipse;whiteSpace=wrap;html=1;aspect=fixed;fillColor=#dae8fc;strokeColor=#6c8ebf;" parent="1" vertex="1">
          <mxGeometry x="25" y="415" width="170" height="170" as="geometry" />
        </mxCell>
        <mxCell id="pyJbDid6SzqdX5I7j4rj-2" value="move_base" style="ellipse;whiteSpace=wrap;html=1;aspect=fixed;fillColor=#f8cecc;strokeColor=#b85450;" parent="1" vertex="1">
          <mxGeometry x="420" y="300" width="80" height="80" as="geometry" />
        </mxCell>
        <mxCell id="pyJbDid6SzqdX5I7j4rj-3" value="audio_player" style="ellipse;whiteSpace=wrap;html=1;aspect=fixed;fillColor=#f8cecc;strokeColor=#b85450;" parent="1" vertex="1">
          <mxGeometry x="420" y="380" width="80" height="80" as="geometry" />
        </mxCell>
        <mxCell id="pyJbDid6SzqdX5I7j4rj-4" value="&lt;div&gt;eyes&lt;/div&gt;&lt;div&gt;manager&lt;/div&gt;" style="ellipse;whiteSpace=wrap;html=1;aspect=fixed;fillColor=#f8cecc;strokeColor=#b85450;" parent="1" vertex="1">
          <mxGeometry x="420" y="460" width="80" height="80" as="geometry" />
        </mxCell>
        <mxCell id="pyJbDid6SzqdX5I7j4rj-5" value="&lt;div&gt;body&lt;/div&gt;&lt;div&gt;manager&lt;/div&gt;" style="ellipse;whiteSpace=wrap;html=1;aspect=fixed;fillColor=#f8cecc;strokeColor=#b85450;" parent="1" vertex="1">
          <mxGeometry x="420" y="540" width="80" height="80" as="geometry" />
        </mxCell>
        <mxCell id="pyJbDid6SzqdX5I7j4rj-6" value="/move_base/goal" style="rounded=0;whiteSpace=wrap;html=1;fillColor=#fff2cc;strokeColor=#d6b656;" parent="1" vertex="1">
          <mxGeometry x="240" y="310" width="120" height="60" as="geometry" />
        </mxCell>
        <mxCell id="pyJbDid6SzqdX5I7j4rj-7" value="/audio_player/goal" style="rounded=0;whiteSpace=wrap;html=1;fillColor=#fff2cc;strokeColor=#d6b656;" parent="1" vertex="1">
          <mxGeometry x="240" y="390" width="120" height="60" as="geometry" />
        </mxCell>
        <mxCell id="pyJbDid6SzqdX5I7j4rj-8" value="/eyes_manager/goa" style="rounded=0;whiteSpace=wrap;html=1;fillColor=#fff2cc;strokeColor=#d6b656;" parent="1" vertex="1">
          <mxGeometry x="240" y="470" width="120" height="60" as="geometry" />
        </mxCell>
        <mxCell id="pyJbDid6SzqdX5I7j4rj-9" value="/body_manager/goal" style="rounded=0;whiteSpace=wrap;html=1;fillColor=#fff2cc;strokeColor=#d6b656;" parent="1" vertex="1">
          <mxGeometry x="240" y="550" width="120" height="60" as="geometry" />
        </mxCell>
        <mxCell id="pyJbDid6SzqdX5I7j4rj-14" value="&lt;div&gt;cmd_vel&lt;/div&gt;&lt;div&gt;manager&lt;br&gt;&lt;/div&gt;" style="ellipse;whiteSpace=wrap;html=1;aspect=fixed;fillColor=#f8cecc;strokeColor=#b85450;" parent="1" vertex="1">
          <mxGeometry x="420" y="620" width="80" height="80" as="geometry" />
        </mxCell>
        <mxCell id="pyJbDid6SzqdX5I7j4rj-15" value="&lt;div&gt;/cmd_vel_manager&lt;/div&gt;&lt;div&gt;/goal&lt;/div&gt;" style="rounded=0;whiteSpace=wrap;html=1;fillColor=#fff2cc;strokeColor=#d6b656;" parent="1" vertex="1">
          <mxGeometry x="240" y="630" width="120" height="60" as="geometry" />
        </mxCell>
        <mxCell id="pyJbDid6SzqdX5I7j4rj-19" value="" style="endArrow=classic;html=1;entryX=0;entryY=0.5;entryDx=0;entryDy=0;" parent="1" edge="1">
          <mxGeometry width="50" height="50" relative="1" as="geometry">
            <mxPoint x="360" y="340" as="sourcePoint" />
            <mxPoint x="420" y="340" as="targetPoint" />
          </mxGeometry>
        </mxCell>
        <mxCell id="pyJbDid6SzqdX5I7j4rj-20" value="" style="endArrow=classic;html=1;entryX=0;entryY=0.5;entryDx=0;entryDy=0;" parent="1" edge="1">
          <mxGeometry width="50" height="50" relative="1" as="geometry">
            <mxPoint x="360" y="419.5" as="sourcePoint" />
            <mxPoint x="420" y="419.5" as="targetPoint" />
          </mxGeometry>
        </mxCell>
        <mxCell id="pyJbDid6SzqdX5I7j4rj-21" value="" style="endArrow=classic;html=1;entryX=0;entryY=0.5;entryDx=0;entryDy=0;" parent="1" edge="1">
          <mxGeometry width="50" height="50" relative="1" as="geometry">
            <mxPoint x="360" y="499.5" as="sourcePoint" />
            <mxPoint x="420" y="499.5" as="targetPoint" />
          </mxGeometry>
        </mxCell>
        <mxCell id="pyJbDid6SzqdX5I7j4rj-22" value="" style="endArrow=classic;html=1;entryX=0;entryY=0.5;entryDx=0;entryDy=0;" parent="1" edge="1">
          <mxGeometry width="50" height="50" relative="1" as="geometry">
            <mxPoint x="360" y="579.5" as="sourcePoint" />
            <mxPoint x="420" y="579.5" as="targetPoint" />
          </mxGeometry>
        </mxCell>
        <mxCell id="pyJbDid6SzqdX5I7j4rj-24" value="speech monitor" style="ellipse;whiteSpace=wrap;html=1;aspect=fixed;fillColor=#f8cecc;strokeColor=#b85450;" parent="1" vertex="1">
          <mxGeometry x="-270" y="350" width="80" height="80" as="geometry" />
        </mxCell>
        <mxCell id="NiyE5IILj-Nan5Zj0O8v-18" value="" style="edgeStyle=orthogonalEdgeStyle;rounded=0;orthogonalLoop=1;jettySize=auto;html=1;" edge="1" parent="1" source="pyJbDid6SzqdX5I7j4rj-25" target="pyJbDid6SzqdX5I7j4rj-30">
          <mxGeometry relative="1" as="geometry" />
        </mxCell>
        <mxCell id="pyJbDid6SzqdX5I7j4rj-25" value="&lt;div&gt;joystick &lt;br&gt;&lt;/div&gt;" style="ellipse;whiteSpace=wrap;html=1;aspect=fixed;fillColor=#dae8fc;strokeColor=#6c8ebf;" parent="1" vertex="1">
          <mxGeometry x="-270" y="520" width="80" height="80" as="geometry" />
        </mxCell>
        <mxCell id="pyJbDid6SzqdX5I7j4rj-27" value="/speech_monitor/goal" style="rounded=0;whiteSpace=wrap;html=1;fillColor=#fff2cc;strokeColor=#d6b656;" parent="1" vertex="1">
          <mxGeometry x="-130" y="360" width="120" height="60" as="geometry" />
        </mxCell>
        <mxCell id="NiyE5IILj-Nan5Zj0O8v-19" value="" style="edgeStyle=orthogonalEdgeStyle;rounded=0;orthogonalLoop=1;jettySize=auto;html=1;" edge="1" parent="1" source="pyJbDid6SzqdX5I7j4rj-25" target="pyJbDid6SzqdX5I7j4rj-28">
          <mxGeometry relative="1" as="geometry" />
        </mxCell>
        <mxCell id="pyJbDid6SzqdX5I7j4rj-28" value="/next_section" style="rounded=0;whiteSpace=wrap;html=1;fillColor=#e1d5e7;strokeColor=#9673a6;" parent="1" vertex="1">
          <mxGeometry x="-130" y="480" width="120" height="60" as="geometry" />
        </mxCell>
        <mxCell id="pyJbDid6SzqdX5I7j4rj-30" value="/move_base_recovery" style="rounded=0;whiteSpace=wrap;html=1;fillColor=#e1d5e7;strokeColor=#9673a6;" parent="1" vertex="1">
          <mxGeometry x="-130" y="585" width="120" height="60" as="geometry" />
        </mxCell>
        <mxCell id="NiyE5IILj-Nan5Zj0O8v-2" value="" style="endArrow=classic;html=1;entryX=0;entryY=0.5;entryDx=0;entryDy=0;" edge="1" parent="1">
          <mxGeometry width="50" height="50" relative="1" as="geometry">
            <mxPoint x="360" y="659.5" as="sourcePoint" />
            <mxPoint x="420" y="659.5" as="targetPoint" />
          </mxGeometry>
        </mxCell>
        <mxCell id="NiyE5IILj-Nan5Zj0O8v-4" value="" style="endArrow=classic;html=1;entryX=1;entryY=0.5;entryDx=0;entryDy=0;exitX=0;exitY=0.5;exitDx=0;exitDy=0;" edge="1" parent="1" source="pyJbDid6SzqdX5I7j4rj-27" target="pyJbDid6SzqdX5I7j4rj-24">
          <mxGeometry width="50" height="50" relative="1" as="geometry">
            <mxPoint x="-190" y="320" as="sourcePoint" />
            <mxPoint x="-130" y="320" as="targetPoint" />
          </mxGeometry>
        </mxCell>
        <mxCell id="NiyE5IILj-Nan5Zj0O8v-10" value="" style="endArrow=classic;html=1;entryX=0;entryY=0.5;entryDx=0;entryDy=0;exitX=0.5;exitY=0;exitDx=0;exitDy=0;" edge="1" parent="1" source="pyJbDid6SzqdX5I7j4rj-1" target="pyJbDid6SzqdX5I7j4rj-6">
          <mxGeometry width="50" height="50" relative="1" as="geometry">
            <mxPoint x="100" y="400" as="sourcePoint" />
            <mxPoint x="150" y="350" as="targetPoint" />
          </mxGeometry>
        </mxCell>
        <mxCell id="NiyE5IILj-Nan5Zj0O8v-11" value="" style="endArrow=classic;html=1;entryX=0;entryY=0.5;entryDx=0;entryDy=0;exitX=1;exitY=0;exitDx=0;exitDy=0;" edge="1" parent="1" source="pyJbDid6SzqdX5I7j4rj-1" target="pyJbDid6SzqdX5I7j4rj-7">
          <mxGeometry width="50" height="50" relative="1" as="geometry">
            <mxPoint x="60" y="560" as="sourcePoint" />
            <mxPoint x="110" y="510" as="targetPoint" />
          </mxGeometry>
        </mxCell>
        <mxCell id="NiyE5IILj-Nan5Zj0O8v-12" value="" style="endArrow=classic;html=1;entryX=0;entryY=0.5;entryDx=0;entryDy=0;exitX=1;exitY=0.5;exitDx=0;exitDy=0;" edge="1" parent="1" source="pyJbDid6SzqdX5I7j4rj-1" target="pyJbDid6SzqdX5I7j4rj-8">
          <mxGeometry width="50" height="50" relative="1" as="geometry">
            <mxPoint x="90" y="730" as="sourcePoint" />
            <mxPoint x="140" y="680" as="targetPoint" />
          </mxGeometry>
        </mxCell>
        <mxCell id="NiyE5IILj-Nan5Zj0O8v-13" value="" style="endArrow=classic;html=1;exitX=0.5;exitY=1;exitDx=0;exitDy=0;entryX=0;entryY=0.5;entryDx=0;entryDy=0;" edge="1" parent="1" source="pyJbDid6SzqdX5I7j4rj-1" target="pyJbDid6SzqdX5I7j4rj-15">
          <mxGeometry width="50" height="50" relative="1" as="geometry">
            <mxPoint x="70" y="770" as="sourcePoint" />
            <mxPoint x="120" y="720" as="targetPoint" />
          </mxGeometry>
        </mxCell>
        <mxCell id="NiyE5IILj-Nan5Zj0O8v-14" value="" style="endArrow=classic;html=1;entryX=0;entryY=0.5;entryDx=0;entryDy=0;exitX=1;exitY=1;exitDx=0;exitDy=0;" edge="1" parent="1" source="pyJbDid6SzqdX5I7j4rj-1" target="pyJbDid6SzqdX5I7j4rj-9">
          <mxGeometry width="50" height="50" relative="1" as="geometry">
            <mxPoint x="60" y="790" as="sourcePoint" />
            <mxPoint x="110" y="740" as="targetPoint" />
          </mxGeometry>
        </mxCell>
        <mxCell id="NiyE5IILj-Nan5Zj0O8v-15" value="" style="endArrow=classic;html=1;entryX=0;entryY=1;entryDx=0;entryDy=0;exitX=1;exitY=0.5;exitDx=0;exitDy=0;" edge="1" parent="1" source="pyJbDid6SzqdX5I7j4rj-30" target="pyJbDid6SzqdX5I7j4rj-1">
          <mxGeometry width="50" height="50" relative="1" as="geometry">
            <mxPoint x="50" y="740" as="sourcePoint" />
            <mxPoint x="100" y="690" as="targetPoint" />
          </mxGeometry>
        </mxCell>
        <mxCell id="NiyE5IILj-Nan5Zj0O8v-16" value="" style="endArrow=classic;html=1;entryX=0;entryY=0.5;entryDx=0;entryDy=0;exitX=1;exitY=0.4;exitDx=0;exitDy=0;exitPerimeter=0;" edge="1" parent="1" source="pyJbDid6SzqdX5I7j4rj-28" target="pyJbDid6SzqdX5I7j4rj-1">
          <mxGeometry width="50" height="50" relative="1" as="geometry">
            <mxPoint x="70" y="710" as="sourcePoint" />
            <mxPoint x="120" y="660" as="targetPoint" />
          </mxGeometry>
        </mxCell>
        <mxCell id="NiyE5IILj-Nan5Zj0O8v-17" value="" style="endArrow=classic;html=1;exitX=1;exitY=0.5;exitDx=0;exitDy=0;entryX=0;entryY=0;entryDx=0;entryDy=0;" edge="1" parent="1" source="pyJbDid6SzqdX5I7j4rj-27" target="pyJbDid6SzqdX5I7j4rj-1">
          <mxGeometry width="50" height="50" relative="1" as="geometry">
            <mxPoint x="80" y="710" as="sourcePoint" />
            <mxPoint x="130" y="680" as="targetPoint" />
          </mxGeometry>
        </mxCell>
      </root>
    </mxGraphModel>
  </diagram>
</mxfile>
